<mxfile host="app.diagrams.net" modified="2023-03-09T09:39:05.980Z" agent="5.0 (Windows NT 10.0; Win64; x64) AppleWebKit/537.36 (KHTML, like Gecko) Chrome/111.0.0.0 Safari/537.36 Edg/111.0.1661.27" etag="7rPglF8QjvFpKSokXiV8" version="21.0.4" type="github">
  <diagram id="yLelaXO9gS1vnXNycFNf" name="第 1 页">
    <mxGraphModel dx="534" dy="313" grid="1" gridSize="10" guides="1" tooltips="1" connect="1" arrows="1" fold="1" page="1" pageScale="1" pageWidth="827" pageHeight="1169" math="1" shadow="0">
      <root>
        <mxCell id="0" />
        <mxCell id="1" parent="0" />
        <mxCell id="QIfcE2KOUsI6PZ53LAPx-4" value="" style="endArrow=none;html=1;rounded=0;strokeWidth=3;" parent="1" edge="1">
          <mxGeometry width="50" height="50" relative="1" as="geometry">
            <mxPoint x="120" y="100" as="sourcePoint" />
            <mxPoint x="500" y="100" as="targetPoint" />
          </mxGeometry>
        </mxCell>
        <mxCell id="QIfcE2KOUsI6PZ53LAPx-5" value="" style="endArrow=none;html=1;rounded=0;strokeWidth=3;startArrow=none;" parent="1" edge="1">
          <mxGeometry width="50" height="50" relative="1" as="geometry">
            <mxPoint x="120" y="190" as="sourcePoint" />
            <mxPoint x="500" y="190" as="targetPoint" />
          </mxGeometry>
        </mxCell>
        <mxCell id="QIfcE2KOUsI6PZ53LAPx-7" value="" style="shape=image;html=1;verticalAlign=top;verticalLabelPosition=bottom;labelBackgroundColor=#ffffff;imageAspect=0;aspect=fixed;image=https://cdn1.iconfinder.com/data/icons/cars-01-1/512/oldcar-128.png;flipH=1;points=[[0,0,0,0,0],[0.43,0.62,0,0,0],[0.55,0.62,0,0,0]];" parent="1" vertex="1">
          <mxGeometry x="132.07999999999998" y="85.03" width="128" height="128" as="geometry" />
        </mxCell>
        <mxCell id="QIfcE2KOUsI6PZ53LAPx-8" value="" style="shape=mxgraph.cisco.wireless.antenna;html=1;pointerEvents=1;dashed=0;fillColor=#036897;strokeColor=#ffffff;strokeWidth=2;verticalLabelPosition=bottom;verticalAlign=top;align=center;outlineConnect=0;" parent="1" vertex="1">
          <mxGeometry x="180.54000000000002" y="270" width="40.54" height="50" as="geometry" />
        </mxCell>
        <mxCell id="QIfcE2KOUsI6PZ53LAPx-15" value="" style="shape=mxgraph.cisco.wireless.antenna;html=1;pointerEvents=1;dashed=0;fillColor=#036897;strokeColor=#ffffff;strokeWidth=2;verticalLabelPosition=bottom;verticalAlign=top;align=center;outlineConnect=0;" parent="1" vertex="1">
          <mxGeometry x="131" y="270" width="40.54" height="50" as="geometry" />
        </mxCell>
        <mxCell id="QIfcE2KOUsI6PZ53LAPx-25" value="" style="fontColor=#0066CC;verticalAlign=top;verticalLabelPosition=bottom;labelPosition=center;align=center;html=1;outlineConnect=0;fillColor=#CCCCCC;strokeColor=#000000;gradientColor=none;gradientDirection=north;strokeWidth=2;shape=mxgraph.networks.radio_tower;" parent="1" vertex="1">
          <mxGeometry x="148.54" y="289" width="55" height="53" as="geometry" />
        </mxCell>
        <mxCell id="QIfcE2KOUsI6PZ53LAPx-47" value="" style="ellipse;whiteSpace=wrap;html=1;strokeColor=none;fillColor=#A9C4EB;opacity=80;rotation=-25;" parent="1" vertex="1">
          <mxGeometry x="204.99" y="239.6" width="108.46" height="13.75" as="geometry" />
        </mxCell>
        <mxCell id="QIfcE2KOUsI6PZ53LAPx-50" value="" style="endArrow=none;dashed=1;html=1;rounded=0;strokeColor=#000000;strokeWidth=2;exitX=0;exitY=0.5;exitDx=0;exitDy=0;entryX=1;entryY=0.5;entryDx=0;entryDy=0;" parent="1" source="QIfcE2KOUsI6PZ53LAPx-47" target="QIfcE2KOUsI6PZ53LAPx-47" edge="1">
          <mxGeometry width="50" height="50" relative="1" as="geometry">
            <mxPoint x="420" y="220" as="sourcePoint" />
            <mxPoint x="470" y="170" as="targetPoint" />
          </mxGeometry>
        </mxCell>
        <mxCell id="QIfcE2KOUsI6PZ53LAPx-52" value="" style="ellipse;whiteSpace=wrap;html=1;strokeColor=none;fillColor=#A9C4EB;opacity=80;rotation=-95;" parent="1" vertex="1">
          <mxGeometry x="184.33" y="239.81" width="46.63" height="11.47" as="geometry" />
        </mxCell>
        <mxCell id="QIfcE2KOUsI6PZ53LAPx-56" value="" style="ellipse;whiteSpace=wrap;html=1;strokeColor=none;fillColor=#FFB570;opacity=80;rotation=-95;" parent="1" vertex="1">
          <mxGeometry x="172.95" y="187.22" width="59.76" height="11.47" as="geometry" />
        </mxCell>
        <mxCell id="QIfcE2KOUsI6PZ53LAPx-68" value="" style="shape=image;html=1;verticalAlign=top;verticalLabelPosition=bottom;labelBackgroundColor=#ffffff;imageAspect=0;aspect=fixed;image=https://cdn1.iconfinder.com/data/icons/cars-01-1/512/oldcar-128.png;flipH=1;points=[[0,0,0,0,0],[0.43,0.62,0,0,0],[0.55,0.62,0,0,0]];" parent="1" vertex="1">
          <mxGeometry x="362" y="85.03" width="128" height="128" as="geometry" />
        </mxCell>
        <mxCell id="QIfcE2KOUsI6PZ53LAPx-57" value="" style="ellipse;whiteSpace=wrap;html=1;strokeColor=none;fillColor=#FFB570;opacity=80;rotation=-25;" parent="1" vertex="1">
          <mxGeometry x="300.93" y="188.22" width="134" height="16.39" as="geometry" />
        </mxCell>
        <mxCell id="QIfcE2KOUsI6PZ53LAPx-58" value="" style="endArrow=none;dashed=1;html=1;rounded=0;strokeColor=#000000;strokeWidth=2;entryX=1;entryY=0.5;entryDx=0;entryDy=0;exitX=0;exitY=0.5;exitDx=0;exitDy=0;" parent="1" source="QIfcE2KOUsI6PZ53LAPx-57" target="QIfcE2KOUsI6PZ53LAPx-57" edge="1">
          <mxGeometry width="50" height="50" relative="1" as="geometry">
            <mxPoint x="270" y="280" as="sourcePoint" />
            <mxPoint x="320" y="230" as="targetPoint" />
          </mxGeometry>
        </mxCell>
        <mxCell id="QIfcE2KOUsI6PZ53LAPx-59" value="" style="endArrow=none;dashed=1;html=1;rounded=0;strokeColor=#000000;strokeWidth=2;exitX=0;exitY=0.5;exitDx=0;exitDy=0;entryX=1;entryY=0.5;entryDx=0;entryDy=0;" parent="1" source="QIfcE2KOUsI6PZ53LAPx-52" target="QIfcE2KOUsI6PZ53LAPx-52" edge="1">
          <mxGeometry width="50" height="50" relative="1" as="geometry">
            <mxPoint x="270" y="280" as="sourcePoint" />
            <mxPoint x="220" y="230" as="targetPoint" />
          </mxGeometry>
        </mxCell>
        <mxCell id="QIfcE2KOUsI6PZ53LAPx-60" value="" style="endArrow=none;dashed=1;html=1;rounded=0;strokeColor=#000000;strokeWidth=2;exitX=0;exitY=0.5;exitDx=0;exitDy=0;entryX=1;entryY=0.5;entryDx=0;entryDy=0;" parent="1" source="QIfcE2KOUsI6PZ53LAPx-56" target="QIfcE2KOUsI6PZ53LAPx-56" edge="1">
          <mxGeometry width="50" height="50" relative="1" as="geometry">
            <mxPoint x="205.33793221364363" y="219.34706778635632" as="sourcePoint" />
            <mxPoint x="290" y="170" as="targetPoint" />
          </mxGeometry>
        </mxCell>
        <mxCell id="QIfcE2KOUsI6PZ53LAPx-62" value="" style="endArrow=classic;html=1;rounded=0;strokeColor=#EA6B66;strokeWidth=2;dashed=1;dashPattern=1 1;exitX=0.55;exitY=0.62;exitDx=0;exitDy=0;exitPerimeter=0;" parent="1" source="QIfcE2KOUsI6PZ53LAPx-68" edge="1">
          <mxGeometry width="50" height="50" relative="1" as="geometry">
            <mxPoint x="600" y="160" as="sourcePoint" />
            <mxPoint x="170" y="260" as="targetPoint" />
          </mxGeometry>
        </mxCell>
        <mxCell id="QIfcE2KOUsI6PZ53LAPx-63" value="" style="endArrow=classic;html=1;rounded=0;strokeColor=#EA6B66;strokeWidth=2;dashed=1;dashPattern=1 1;exitX=0.55;exitY=0.62;exitDx=0;exitDy=0;exitPerimeter=0;" parent="1" source="QIfcE2KOUsI6PZ53LAPx-7" edge="1">
          <mxGeometry width="50" height="50" relative="1" as="geometry">
            <mxPoint x="200" y="150" as="sourcePoint" />
            <mxPoint x="150" y="260" as="targetPoint" />
          </mxGeometry>
        </mxCell>
        <mxCell id="QIfcE2KOUsI6PZ53LAPx-64" value="" style="endArrow=none;dashed=1;html=1;rounded=0;strokeColor=#000000;strokeWidth=1;opacity=80;" parent="1" edge="1">
          <mxGeometry width="50" height="50" relative="1" as="geometry">
            <mxPoint x="208.01" y="270.31" as="sourcePoint" />
            <mxPoint x="358" y="270" as="targetPoint" />
          </mxGeometry>
        </mxCell>
        <mxCell id="QIfcE2KOUsI6PZ53LAPx-66" value="" style="curved=1;endArrow=none;html=1;rounded=0;strokeColor=#000000;strokeWidth=1;opacity=80;endFill=0;" parent="1" edge="1">
          <mxGeometry width="50" height="50" relative="1" as="geometry">
            <mxPoint x="262.16" y="269" as="sourcePoint" />
            <mxPoint x="256.08" y="249" as="targetPoint" />
            <Array as="points">
              <mxPoint x="270" y="260" />
            </Array>
          </mxGeometry>
        </mxCell>
        <mxCell id="QIfcE2KOUsI6PZ53LAPx-67" value="" style="endArrow=none;dashed=1;html=1;rounded=0;strokeColor=#000000;strokeWidth=2;entryX=0.43;entryY=0.62;entryDx=0;entryDy=0;entryPerimeter=0;exitX=0.43;exitY=0.62;exitDx=0;exitDy=0;exitPerimeter=0;" parent="1" source="QIfcE2KOUsI6PZ53LAPx-7" target="QIfcE2KOUsI6PZ53LAPx-68" edge="1">
          <mxGeometry width="50" height="50" relative="1" as="geometry">
            <mxPoint x="320" y="160" as="sourcePoint" />
            <mxPoint x="606" y="160" as="targetPoint" />
          </mxGeometry>
        </mxCell>
        <mxCell id="QIfcE2KOUsI6PZ53LAPx-69" value="&lt;font style=&quot;font-size: 16px;&quot;&gt;$$\theta_{n-1}$$&lt;/font&gt;" style="text;html=1;resizable=0;autosize=1;align=center;verticalAlign=middle;points=[];fillColor=none;strokeColor=none;rounded=0;opacity=80;fontSize=20;" parent="1" vertex="1">
          <mxGeometry x="221.08" y="244.76999999999998" width="130" height="30" as="geometry" />
        </mxCell>
        <mxCell id="2lejhlqqJ523gHn0EPpr-3" value="&lt;font face=&quot;宋体&quot; style=&quot;font-size: 14px;&quot;&gt;发射波束&lt;/font&gt;" style="text;html=1;resizable=0;autosize=1;align=center;verticalAlign=middle;points=[];fillColor=none;strokeColor=none;rounded=0;opacity=80;" parent="1" vertex="1">
          <mxGeometry x="291.53999999999996" y="226.28" width="80" height="30" as="geometry" />
        </mxCell>
        <mxCell id="2lejhlqqJ523gHn0EPpr-4" value="&lt;font face=&quot;宋体&quot; style=&quot;font-size: 14px;&quot;&gt;接收波束&lt;/font&gt;" style="text;html=1;resizable=0;autosize=1;align=center;verticalAlign=middle;points=[];fillColor=none;strokeColor=none;rounded=0;opacity=80;" parent="1" vertex="1">
          <mxGeometry x="374.99999999999994" y="188.03" width="80" height="30" as="geometry" />
        </mxCell>
        <mxCell id="2lejhlqqJ523gHn0EPpr-5" value="&lt;div style=&quot;text-align: center;&quot;&gt;&lt;span style=&quot;background-color: initial;&quot;&gt;&lt;font style=&quot;font-size: 16px;&quot;&gt;$$\Delta d$$&lt;/font&gt;&lt;/span&gt;&lt;/div&gt;" style="text;whiteSpace=wrap;html=1;fontSize=20;" parent="1" vertex="1">
          <mxGeometry x="286.53999999999996" y="115.03" width="80" height="30" as="geometry" />
        </mxCell>
        <mxCell id="2lejhlqqJ523gHn0EPpr-6" value="&lt;div style=&quot;text-align: center;&quot;&gt;&lt;span style=&quot;background-color: initial;&quot;&gt;&lt;font style=&quot;font-size: 16px;&quot;&gt;$$d_{n-1}$$&lt;/font&gt;&lt;/span&gt;&lt;/div&gt;" style="text;whiteSpace=wrap;html=1;fontSize=20;" parent="1" vertex="1">
          <mxGeometry x="350" y="181.41" width="80" height="30" as="geometry" />
        </mxCell>
        <mxCell id="2lejhlqqJ523gHn0EPpr-7" value="&lt;div style=&quot;text-align: center;&quot;&gt;&lt;span style=&quot;background-color: initial;&quot;&gt;&lt;font style=&quot;font-size: 16px;&quot;&gt;$$d_{n}$$&lt;/font&gt;&lt;/span&gt;&lt;/div&gt;" style="text;whiteSpace=wrap;html=1;fontSize=20;" parent="1" vertex="1">
          <mxGeometry x="180.54" y="183.03" width="80" height="30" as="geometry" />
        </mxCell>
        <mxCell id="2lejhlqqJ523gHn0EPpr-8" value="" style="endArrow=classic;html=1;rounded=0;fontSize=20;strokeWidth=2;fontColor=#EA6B66;strokeColor=#FFB570;" parent="1" edge="1">
          <mxGeometry width="50" height="50" relative="1" as="geometry">
            <mxPoint x="374.1600000000001" y="120" as="sourcePoint" />
            <mxPoint x="244.16" y="120" as="targetPoint" />
          </mxGeometry>
        </mxCell>
        <mxCell id="2lejhlqqJ523gHn0EPpr-10" value="&lt;div style=&quot;text-align: center;&quot;&gt;&lt;span style=&quot;background-color: initial;&quot;&gt;&lt;font style=&quot;font-size: 16px;&quot;&gt;$$v_{n}$$&lt;/font&gt;&lt;/span&gt;&lt;/div&gt;" style="text;whiteSpace=wrap;html=1;fontSize=20;" parent="1" vertex="1">
          <mxGeometry x="141.07999999999998" y="85.03" width="80" height="30" as="geometry" />
        </mxCell>
        <mxCell id="2lejhlqqJ523gHn0EPpr-11" value="&lt;div style=&quot;text-align: center;&quot;&gt;&lt;span style=&quot;background-color: initial;&quot;&gt;&lt;font style=&quot;font-size: 16px;&quot;&gt;$$v_{n-1}$$&lt;/font&gt;&lt;/span&gt;&lt;/div&gt;" style="text;whiteSpace=wrap;html=1;fontSize=20;" parent="1" vertex="1">
          <mxGeometry x="386" y="85.03" width="80" height="30" as="geometry" />
        </mxCell>
        <mxCell id="2lejhlqqJ523gHn0EPpr-12" value="&lt;span style=&quot;font-size: 14px;&quot;&gt;发送天线&lt;/span&gt;" style="text;html=1;resizable=0;autosize=1;align=center;verticalAlign=middle;points=[];fillColor=none;strokeColor=none;rounded=0;opacity=80;fontFamily=宋体;" parent="1" vertex="1">
          <mxGeometry x="219.98999999999995" y="269.77" width="80" height="30" as="geometry" />
        </mxCell>
        <mxCell id="2lejhlqqJ523gHn0EPpr-13" value="&lt;font style=&quot;font-size: 14px;&quot;&gt;接收天线&lt;/font&gt;" style="text;html=1;resizable=0;autosize=1;align=center;verticalAlign=middle;points=[];fillColor=none;strokeColor=none;rounded=0;opacity=80;fontFamily=宋体;" parent="1" vertex="1">
          <mxGeometry x="111.26999999999998" y="249.77" width="80" height="30" as="geometry" />
        </mxCell>
        <mxCell id="2lejhlqqJ523gHn0EPpr-14" value="&lt;font style=&quot;font-size: 16px;&quot;&gt;$$\theta_{n}$$&lt;/font&gt;" style="text;html=1;resizable=0;autosize=1;align=center;verticalAlign=middle;points=[];fillColor=none;strokeColor=none;rounded=0;opacity=80;fontSize=20;" parent="1" vertex="1">
          <mxGeometry x="172.94999999999996" y="223.35" width="120" height="30" as="geometry" />
        </mxCell>
        <mxCell id="2lejhlqqJ523gHn0EPpr-15" value="&lt;font style=&quot;font-size: 16px;&quot;&gt;$$\Delta\theta$$&lt;/font&gt;" style="text;html=1;resizable=0;autosize=1;align=center;verticalAlign=middle;points=[];fillColor=none;strokeColor=none;rounded=0;opacity=80;fontSize=20;" parent="1" vertex="1">
          <mxGeometry x="210" y="187.22" width="130" height="30" as="geometry" />
        </mxCell>
        <mxCell id="2lejhlqqJ523gHn0EPpr-16" value="" style="curved=1;endArrow=none;html=1;rounded=0;strokeColor=#000000;strokeWidth=1;opacity=80;endFill=0;" parent="1" edge="1">
          <mxGeometry width="50" height="50" relative="1" as="geometry">
            <mxPoint x="237" y="270" as="sourcePoint" />
            <mxPoint x="207" y="240" as="targetPoint" />
            <Array as="points">
              <mxPoint x="237" y="250" />
            </Array>
          </mxGeometry>
        </mxCell>
        <mxCell id="2lejhlqqJ523gHn0EPpr-17" value="" style="curved=1;endArrow=none;html=1;rounded=0;strokeColor=#000000;strokeWidth=1;opacity=80;endFill=0;" parent="1" edge="1">
          <mxGeometry width="50" height="50" relative="1" as="geometry">
            <mxPoint x="272.28" y="239.6" as="sourcePoint" />
            <mxPoint x="204.99" y="208.32000000000002" as="targetPoint" />
            <Array as="points">
              <mxPoint x="262.28" y="199.6" />
            </Array>
          </mxGeometry>
        </mxCell>
        <mxCell id="841nLVmWUtgcIs3Pq3GT-4" value="&lt;font style=&quot;font-size: 14px;&quot;&gt;回波&lt;/font&gt;" style="text;html=1;resizable=0;autosize=1;align=center;verticalAlign=middle;points=[];fillColor=none;strokeColor=none;rounded=0;opacity=80;fontFamily=宋体;" parent="1" vertex="1">
          <mxGeometry x="121.53999999999999" y="190.68" width="50" height="30" as="geometry" />
        </mxCell>
        <mxCell id="841nLVmWUtgcIs3Pq3GT-6" value="&lt;span style=&quot;font-size: 14px;&quot;&gt;RSU&lt;/span&gt;" style="text;html=1;resizable=0;autosize=1;align=center;verticalAlign=middle;points=[];fillColor=none;strokeColor=none;rounded=0;opacity=80;" parent="1" vertex="1">
          <mxGeometry x="195.53999999999996" y="310" width="50" height="20" as="geometry" />
        </mxCell>
      </root>
    </mxGraphModel>
  </diagram>
</mxfile>
